<?xml version="1.0" encoding="UTF-8"?> <svg xmlns="http://www.w3.org/2000/svg" id="Ebene_1" width="80.30593" height="77.1" viewBox="0 0 80.30593 77.1"><g id="Ebene_2"><g id="Ebene_1-2"><path d="m60.99319,77.1c-1.15266.00103-2.28358-.3137-3.27-.91l-16.21-9.71999c-.89818-.54092-2.02182-.54092-2.92,0l-16.21,9.63c-3.01974,1.77245-6.90458.76131-8.67702-2.25843-.81786-1.39339-1.07288-3.04647-.71298-4.62157l4.25-18.39c.24099-1.01998-.10145-2.08962-.89-2.78l-14.2-12.45c-2.63183-2.31788-2.88634-6.33041-.56846-8.96225,1.07525-1.22089,2.57808-1.98251,4.19846-2.12775l18.79-1.63c1.04146-.09214,1.94807-.74904,2.36-1.71l7.46-17.33h0C35.38985,1.51058,37.67951-.00012,40.21319,0h0c2.54008.00764,4.83041,1.53059,5.82,3.87l7.36,17.37c.40258.98495,1.32032,1.66362,2.38,1.76l18.77,1.7c3.48692.31904,6.055,3.40438,5.73596,6.8913-.14899,1.62844-.92143,3.13634-2.15596,4.20871l-14.25,12.38c-.79761.70147-1.1371,1.7894-.88,2.82l4.15,18.41c.74567,3.42117-1.42325,6.79905-4.84442,7.54472-.42899.0935-.86654.14218-1.30558.14527v-.00002Zm-20.95-14.54c1.15279-.00205,2.28399.31274,3.27.91l16.16,9.73c1.35225.80556,3.10151.36238,3.90707-.98987.37257-.6254.49169-1.36968.33294-2.08013l-4.16-18.41c-.51712-2.2709.25044-4.64266,2-6.18l14.27-12.38c1.19384-1.02579,1.33008-2.82516.30428-4.01901-.48305-.56218-1.16611-.91406-1.90428-.98099l-18.78-1.71c-2.32642-.21609-4.34464-1.69612-5.25-3.85l-7.36-17.37c-.4448-1.04752-1.47196-1.72836-2.61-1.73h0c-1.13564-.00007-2.16214.6764-2.61,1.72l-7.46,17.33c-.92364,2.14578-2.95247,3.60976-5.28,3.81l-18.78,1.64c-1.56439.11332-2.74072,1.47337-2.6274,3.03776.05516.76157.41467,1.46884.9974,1.96224l14.17,12.42c1.76251,1.5374,2.53189,3.92247,2,6.2l-4.26,18.38c-.35979,1.52666.58615,3.05594,2.11281,3.41573.71804.16922,1.47376.0524,2.10719-.32574l16.21-9.64c.98108-.58083,2.09988-.88816,3.23999-.88999Z" style="fill:#fff;"></path></g></g></svg> 