<?xml version="1.0" encoding="UTF-8"?> <svg xmlns="http://www.w3.org/2000/svg" id="Ebene_2" width="2068.02002" height="2068.02002" viewBox="0 0 2068.02002 2068.02002"><g id="_ŽÓť_1"><path d="m516.10999,1312.79004c0,38.34998,30.67999,69.02002,76.69,69.02002s76.67999-30.67004,76.67999-69.02002v-391.09998s23.01001-122.70001,107.37-122.70001c61.34998,0,107.35999,46.02002,107.35999,122.70001v391.09998c0,38.34998,30.66998,69.02002,76.67999,69.02002s76.69-30.67004,76.69-69.02002v-391.09998s23-122.70001,107.35999-122.70001c61.33997,0,107.35999,46.02002,107.35999,122.70001v391.09998c0,38.34998,30.67004,69.02002,76.68005,69.02002s76.68994-30.67004,76.68994-69.02002v-391.09998c0-168.71002-92.03003-260.73999-199.39001-260.73999-145.69995,0-184.03998,130.37-184.03998,130.37h-7.65997s-38.34998-130.37-176.38-130.37c-122.70001,0-161.03998,115.03998-161.03998,115.03998h-7.67999v-30.67999c0-38.34998-30.66998-69.03003-76.67999-69.03003s-76.69,30.67999-76.69,69.03003v567.47998h0Zm1246.85999,344.82007c-24.96997-24.96997-24.96997-65.47998,0-90.45996,24.97998-24.97998,65.48999-24.97998,90.45996,0l195.84009,195.83997c24.96997,24.97998,24.96997,65.47998,0,90.45996l-195.83997,195.83997c-24.97998,24.97998-65.48999,24.97998-90.45996,0s-24.96997-65.47998,0-90.45996l86.63-86.63H444.32999c-68.39999,0-130.55002-27.93994-175.55002-72.94995-45.00999-45-72.95-107.15002-72.95-175.55005V218.41l-86.63,86.63c-24.98,24.98001-65.48,24.98001-90.46,0s-24.98-65.48001,0-90.45999L214.57001,18.74c24.98-24.97,65.48001-24.97,90.45999,0l195.84,195.84c24.97998,24.98,24.97998,65.48,0,90.46001-24.98001,24.98001-65.48001,24.98001-90.45999,0l-86.63-86.63v1405.28006c0,33.08997,13.57999,63.21997,35.45999,85.08997,21.87,21.88,52.01001,35.45996,85.09,35.45996h1405.28l-86.63-86.63h0l-.01001.00012ZM525.20001,127.95c-35.33002,0-63.97-28.64-63.97-63.97S489.87,0,525.20001,0h1303.89008c65.77002,0,125.52002,26.86,168.80005,70.13,43.27002,43.28,70.12988,103.03001,70.12988,168.8v1303.89008c0,35.32996-28.64001,63.96997-63.96997,63.96997s-63.96997-28.64001-63.96997-63.96997V238.92999c0-30.45999-12.51001-58.2-32.65002-78.34s-47.88-32.65-78.33997-32.65H525.20001v.01Zm1116.98993,428.24001c0,19.08002-9.84998,29.53998-29.54004,49.22998l-127.37,124.28998c-14.16003,14.15997-33.83997,37.53998-33.83997,69.53003s24.60999,56.60999,58.44995,56.60999h195.06006c33.83997,0,57.21997-25.84003,57.21997-55.38s-23.38-55.37-57.21997-55.37h-73.83997v-6.15997l79.98999-78.14001c25.84998-25.84003,51.06995-58.46002,51.06995-109.52002,0-70.76001-63.37-135.37-153.82007-135.37-95.37,0-156.90002,61.54001-156.90002,100.29999,0,30.15002,26.44995,56.60999,58.44995,56.60999,52.92004,0,45.54004-49.22998,95.37-49.22998,22.77002,0,36.92004,14.15002,36.92004,32.60999l.00012-.00995Z" style="fill:#fff; fill-rule:evenodd;"></path></g></svg> 