<?xml version="1.0" encoding="utf-8"?>
<!-- Generator: Adobe Illustrator 23.1.0, SVG Export Plug-In . SVG Version: 6.00 Build 0)  -->
<svg version="1.1" id="Ebene_1" xmlns="http://www.w3.org/2000/svg" xmlns:xlink="http://www.w3.org/1999/xlink" x="0px" y="0px"
	 viewBox="0 0 90.2 58.3" style="enable-background:new 0 0 90.2 58.3;" xml:space="preserve">
<style type="text/css">
	.st0{fill:#FFFFFF;}
</style>
<title>Element 374</title>
<g>
	<path class="st0" d="M45.1,29.2L45.1,29.2C45.1,29.2,45.1,29.1,45.1,29.2C45.1,29.1,45.1,29.2,45.1,29.2z"/>
	<path class="st0" d="M45.4,29.4c-0.2-0.2-0.4-0.4-0.6-0.6"/>
	<path class="st0" d="M90.9,39.1c-2.6-2-5.6-3.5-8.7-4.6l-0.6-0.2l0.4-0.7c0.9-1.6,1.6-3.4,2.1-5.2l0,0v-0.1v-0.1l0.1-0.1
		c0.7-2.5,1.1-5.1,1.2-7.6c0.3-4.9-0.8-8.6-3.3-11.2c-2.4-2.4-5.7-3.6-9.1-3.5c-3.2-0.2-6.3,1-8.6,3.2c-2.4,2.4-3.6,6.1-3.6,10.9
		c-0.1,2.8,0.3,5.6,1.1,8.3l0.1,0.1v0.1c0.5,1.9,1.2,3.7,2.2,5.4l0.4,0.7l-0.8,0.3c-1,0.4-2.3,0.9-3.4,1.4l-1.8,0.7h-0.3h-0.1
		c-1.5-0.6-2.7-1-3.3-1.2l-0.3-0.1l-0.2-0.3c-0.4-0.7-0.7-1.5-0.7-2.3v-0.2l0.1-0.2c1.5-2.6,2.6-5.4,3.3-8.3l0.1-0.5l0,0
		c0.6-2.8,1-5.7,1.1-8.5c0-9.8-4.3-14.5-13-14.5c-3.6-0.1-7.2,1.3-9.6,4C33,8,31.8,12.1,32.3,16.1c0.3,2.6,0.7,5.3,1.2,7.8v0.1v0.1
		l0,0c0.6,2.9,1.7,5.7,3.2,8.2l0.2,0.2l-0.1,0.3c0,0.8-0.3,1.6-0.7,2.3L36,35.6l-0.3,0.1c-0.6,0.2-1.8,0.6-3.3,1.2l-0.3,0.1
		l-0.3-0.1c-0.9-0.3-2.7-1.1-4.2-1.7l-1.7-0.7l0.4-0.7c0.9-1.7,1.7-3.5,2.1-5.4v-0.1l0.1-0.2c0.6-2.5,1-5.1,1.1-7.7
		c0.3-4.9-0.8-8.6-3.3-11.2c-2.4-2.4-5.7-3.6-9.1-3.5c-3.2-0.2-6.3,1-8.6,3.2c-2.4,2.4-3.6,6-3.6,10.8c-0.1,2.8,0.3,5.6,1.1,8.3
		l0.1,0.1v0.1c0.5,1.9,1.2,3.7,2.1,5.3l0.4,0.8L8,34.7c-3.1,1-6.1,2.6-8.7,4.5c-0.2,0.2-0.4,0.5-0.4,0.8c0,0.3,0.1,0.6,0.3,0.9
		c0.4,0.5,1.2,0.6,1.7,0.1c2.8-2.4,7.8-4.1,9.3-4.6l0.3-0.1l0.3,0.2c1.3,0.8,3.2,1.2,6.4,1.2s5.1-0.4,6.5-1.3l0.5-0.1l0.7,0.3
		c0.6,0.2,4.1,1.6,4.1,1.6L27.6,39c-3.3,1.9-5.2,3.8-5.7,5.8c-0.8,3.8-1.1,7.7-0.8,11.5c0,0.6,0.6,1.1,1.2,1.1h0.1
		c0.7-0.1,1.1-0.7,1.1-1.3c-0.2-3.6,0-7.2,0.8-10.8c0.9-3.5,9.6-6.7,12.9-7.7c0.2-0.1,0.4-0.2,0.5-0.3c0.1-0.1,0.2-0.2,0.3-0.4
		l0.1-0.2c0.1-0.2,0.3-0.4,0.4-0.7l0.3-0.8l0.7,0.5c1.7,1.1,4.6,1.3,5.9,1.3c0.9,0,3.8-0.1,5.6-1.2l0.7-0.4c0,0,0.6,1.1,0.7,1.3
		l0.3,0.5c0.1,0.2,0.3,0.3,0.5,0.4h0.1h0.1c0.1,0,7.9,2.3,11.4,5.6l0.1,0.1c0.5,0.5,0.9,1.2,1.2,1.9c0.8,3.5,1,7.1,0.8,10.7
		c-0.1,0.7,0.4,1.3,1.1,1.3H68c0.6,0,1.1-0.5,1.2-1.1c0.3-3.9,0-7.7-0.8-11.5c-0.3-1-0.9-2-1.6-2.7c-0.2-0.2-0.4-0.4-0.6-0.6
		c-0.2-0.1-0.3-0.3-0.5-0.4c-1-0.8-2-1.5-3.1-2.1l-1-0.6l4.5-1.7l0.3,0.2c1.3,0.8,3.2,1.2,6.4,1.2s5.1-0.4,6.5-1.3l0.4-0.3l0.3,0.1
		c1.5,0.5,6.5,2.2,9.3,4.6c0.2,0.2,0.5,0.3,0.8,0.3c0.3,0,0.7-0.2,0.9-0.4c0.2-0.2,0.3-0.5,0.3-0.9C91.3,39.6,91.2,39.3,90.9,39.1z
		 M23.8,33.3l-0.3,0.3c-0.9,1-2.1,1.8-6.2,1.8s-5.1-0.6-6-1.6l-0.1-0.1l-0.2-0.3c-0.9-1.8-1.7-3.8-2.4-5.7l0-0.3v-0.1v-0.1
		c-0.7-2.4-1-5-0.9-7.5c0-4.2,0.9-7.3,2.9-9.2c1.9-1.7,4.4-2.6,6.9-2.5c3.2,0,5.7,0.9,7.4,2.7c1.9,2,2.8,5.3,2.6,9.4
		c-0.1,2.4-0.4,4.8-1,7.1v0.1v0.1v0.1l-0.1,0.2C25.8,29.7,24.9,31.6,23.8,33.3z M50,33.6c-0.5,0.5-2.2,1-4.8,1c-2.6,0-4.2-0.5-4.6-1
		c-1.5-1.5-3.6-5-4.7-9.9l-0.1-0.4c-0.5-2.3-0.8-4.8-1.1-7.4c-0.5-3.4,0.5-6.8,2.7-9.5c2-2.1,4.9-3.3,7.9-3.2
		c7.3,0,10.6,3.8,10.6,12.2c-0.1,2.7-0.5,5.4-1.1,8v0.1C53.7,28.6,51.5,32.1,50,33.6z M79.5,33.2L79.5,33.2l-0.1,0.2
		c-0.1,0.1-0.2,0.2-0.2,0.3c-1,1-2.1,1.8-6.2,1.8s-5.1-0.6-6-1.7l-0.1-0.1v-0.1c0-0.1-0.1-0.1-0.1-0.2c-1.2-1.8-2-3.7-2.5-5.8
		l-0.1-0.1v-0.1v-0.1c-0.7-2.5-1-5-0.9-7.5c0-4.1,1-7.2,2.9-9.2C68,8.8,70.4,7.9,73,8.1c3.2,0,5.7,0.9,7.3,2.7c2,2,2.9,5.3,2.6,9.4
		c-0.1,2.5-0.5,4.9-1.1,7.2l-0.1,0.4C81.3,29.7,80.6,31.5,79.5,33.2z"/>
	<path class="st0" d="M45,30.8c-1.9,0-3.7-0.7-5.2-1.9c-0.3-0.3-0.3-0.8,0-1.1c0,0,0,0,0,0c0.3-0.3,0.8-0.3,1.1,0c0,0,0,0,0,0
		c0.2,0.1,3.7,3.3,8.4,0c0.3-0.2,0.8-0.2,1.1,0.2c0,0,0,0,0,0c0.2,0.4,0.2,0.8-0.2,1.1C48.7,30.1,46.9,30.8,45,30.8z"/>
	<path class="st0" d="M45.1,30.8c-1.9,0-3.7-0.7-5.2-1.9c-0.3-0.3-0.3-0.8,0-1.1c0.3-0.3,0.8-0.3,1.1,0c0,0,0,0,0,0
		c0.2,0.1,3.7,3.3,8.4,0c0.4-0.2,0.9-0.1,1.1,0.3c0.2,0.3,0.1,0.7-0.2,1C48.8,30.1,47,30.8,45.1,30.8z"/>
	<path class="st0" d="M45.1,30.8c-1.9,0-3.7-0.7-5.2-1.9c-0.3-0.3-0.3-0.8,0-1.1c0.3-0.3,0.8-0.3,1.1,0c0.2,0.1,3.7,3.3,8.4,0
		c0.4-0.2,0.9-0.1,1.1,0.3c0.2,0.3,0.1,0.7-0.2,1C48.8,30.1,47,30.7,45.1,30.8z"/>
</g>
</svg>
